<svg width="190" height="190" viewBox="0 0 190 190" fill="none" xmlns="http://www.w3.org/2000/svg">
<path d="M95.001 105.538C71.1652 105.538 51.808 124.427 51.808 147.769C51.808 171.111 71.1649 190 95.001 190C118.837 190 138.194 171.111 138.194 147.769C138.194 124.427 118.837 105.538 95.001 105.538ZM87.0304 169.365L68.015 150.773L74.1256 144.798L87.0304 157.416L115.876 129.176L121.987 135.15L87.0304 169.365Z" fill="#191116"/>
<path d="M127.718 49.6511L190 112.069V4.41409L127.718 49.6511Z" fill="#191116"/>
<path d="M181.613 0H8.38598L94.9976 62.9002L181.613 0Z" fill="#191116"/>
<path d="M95.001 73.4384L69.2678 54.7722L5.92008 118.229H52.9823C62.3951 105.463 77.6909 97.1137 94.9989 97.1137C112.269 97.1137 127.602 105.463 137.016 118.229H184.078L120.73 54.7349L95.001 73.4384Z" fill="#191116"/>
<path d="M0 4.41611V112.071L62.2823 49.6531L0 4.41611Z" fill="#191116"/>
</svg>
