<svg width="190" height="187" viewBox="0 0 190 187" fill="none" xmlns="http://www.w3.org/2000/svg">
<path d="M0 158.321H59.3741V178.1H43.5287V186.041H146.47V178.1H130.624V158.321H189.999V134.571H0.00135638L0 158.321Z" fill="#191116"/>
<path d="M154.634 19.7938C152.741 22.9481 150.478 26.3993 147.769 30.2586C138.937 42.7272 126.58 57.3481 115.484 68.4446C111.328 72.6008 107.506 76.089 103.906 79.0577C101.383 81.1358 99.0452 82.8427 96.7815 84.3271C92.551 87.0731 88.6917 88.8171 85.0923 89.5964C84.7583 93.3815 83.4595 97.1665 81.233 100.655C76.9282 107.409 66.9089 118.727 48.4659 118.727C44.2728 118.727 39.8567 118.133 35.3293 116.946C31.9155 116.055 29.3919 113.087 29.058 109.598C28.7242 106.11 30.6166 102.77 33.771 101.249C35.9233 100.21 41.0445 96.9816 42.0091 89.3742C42.9739 82.0267 48.2434 69.0384 61.9737 66.9606C62.6046 66.8493 63.2354 66.8122 63.8663 66.7751C64.7569 63.5095 66.4268 60.0214 68.8018 56.3103C70.2119 54.1209 71.9931 51.709 74.0711 49.1854C77.077 45.5487 80.528 41.7637 84.6842 37.6075C89.3598 32.9318 96.4477 26.4007 104.352 19.7582H0.00274899V126.594H190V19.7956L154.634 19.7938Z" fill="#191116"/>
<path d="M92.4371 77.7216L75.4041 60.6887C69.9862 69.038 70.0975 74.0848 72.5839 77.6473C69.9863 75.4579 66.6095 74.3446 63.121 74.8641C51.6173 76.6082 49.8361 90.45 49.8361 90.45C48.3518 101.991 40.2619 106.963 37.1819 108.448C36.8108 108.633 36.8851 109.227 37.2933 109.338C58.8536 114.942 69.8004 103.883 74.5497 96.4617C77.1102 92.4911 78.0752 87.5556 76.4052 83.1395L76.3309 82.954C75.9228 81.8778 75.329 80.913 74.661 79.9853C78.2605 82.9911 83.4566 83.5477 92.4371 77.7216Z" fill="#191116"/>
<path d="M80.1551 54.2298L98.8579 72.9326C102.124 70.2608 105.76 66.9583 109.842 62.839C131.551 41.1675 157.786 6.13844 152.368 0.720122C146.949 -4.69819 111.919 21.5381 90.2114 43.2456C86.1295 47.3648 82.8269 50.9642 80.1551 54.2298Z" fill="#191116"/>
</svg>
