<svg width="190" height="190" viewBox="0 0 190 190" fill="none" xmlns="http://www.w3.org/2000/svg">
<path d="M0 162.279H59.3746V182.095H43.529V190H146.471V182.095H130.625V162.279H190V138.529H0.00135639L0 162.279Z" fill="#191116"/>
<path d="M0 0V130.624H189.999V0H0ZM134.668 25.7167L140.346 41.5622H123.795L120.975 25.7167H134.668ZM98.9689 25.7167H112.922L115.742 41.5622H98.9688L98.9689 25.7167ZM116.93 49.4665C116.856 51.2106 116.188 52.8804 115 54.2908C113.367 56.2575 110.918 57.3708 108.32 57.3708H107.578C102.977 57.3708 99.2288 53.8453 99.0059 49.4665L116.93 49.4665ZM77.0743 25.7167H91.0273V41.5622H74.2538L77.0743 25.7167ZM90.9903 49.4665C90.7306 53.8826 87.0197 57.3708 82.418 57.3708H81.6758C79.0782 57.3708 76.629 56.2575 74.996 54.2907C73.8085 52.8806 73.1777 51.2107 73.0664 49.4664L90.9903 49.4665ZM55.3283 25.7167H69.0214L66.2011 41.5622H49.6505L55.3283 25.7167ZM49.0196 53.734C48.0919 52.4352 47.6466 50.9508 47.5724 49.4665H64.791L64.6055 50.4684C63.9004 54.476 60.3007 57.4078 56.1074 57.4078C53.25 57.4078 50.6526 56.0718 49.0196 53.734ZM134.594 104.908H55.4016V65.2764C55.6242 65.2764 55.884 65.3135 56.1066 65.3135C61.1904 65.3135 65.8291 63.0128 68.8722 59.3761C72.0264 63.1611 76.6652 65.3135 81.6377 65.3135H82.3799C87.4267 65.3135 91.9168 63.0128 94.9598 59.4873C98.0028 63.0128 102.493 65.3135 107.54 65.3135H108.282C113.254 65.3135 117.893 63.1612 121.047 59.3761C124.09 63.0128 128.692 65.3135 133.813 65.3135C134.036 65.3135 134.295 65.2764 134.518 65.2764V104.908H134.594ZM140.976 53.734C139.343 56.0347 136.746 57.3708 133.851 57.3708C129.658 57.3708 126.058 54.4392 125.353 50.4314L125.168 49.4295H142.386C142.349 50.9881 141.904 52.435 140.976 53.734Z" fill="#191116"/>
</svg>
