<svg width="190" height="190" viewBox="0 0 190 190" fill="none" xmlns="http://www.w3.org/2000/svg">
<path d="M0 0V31.6543H190V0H0ZM114.78 19.7793H19.7804V11.875H114.78V19.7793ZM142.501 19.7793H134.597V11.875H142.501V19.7793ZM158.347 19.7793H150.442V11.875H158.347V19.7793ZM174.155 19.7793H166.251V11.875H174.155V19.7793Z" fill="#191116"/>
<path d="M63.3447 124.688H87.0947V132.592H63.3447V124.688Z" fill="#191116"/>
<path d="M79.1554 148.438H110.81V156.342H79.1554V148.438Z" fill="#191116"/>
<path d="M118.75 124.688H126.654V132.592H118.75V124.688Z" fill="#191116"/>
<path d="M102.905 124.688H110.81V132.592H102.905V124.688Z" fill="#191116"/>
<path d="M118.75 81.1571H126.654V89.0615H118.75V81.1571Z" fill="#191116"/>
<path d="M79.1554 102.905H110.81V110.81H79.1554V102.905Z" fill="#191116"/>
<path d="M0 190H190V39.5947H0V190ZM47.5 110.845H71.25V102.94H47.5V65.3102H142.5V102.903H118.75V110.807H142.5V148.438H118.75V156.342H126.654V164.246H63.347V156.342H71.2514V148.438H47.5014L47.5 110.845Z" fill="#191116"/>
<path d="M63.3447 81.1571H87.0947V89.0615H63.3447V81.1571Z" fill="#191116"/>
<path d="M102.905 81.1571H110.81V89.0615H102.905V81.1571Z" fill="#191116"/>
</svg>
