<svg xmlns="http://www.w3.org/2000/svg" width="1080" height="1080" viewBox="0 0 1080 1080">
  <defs>
    <style>
      .cls-1 {
        fill: #595557;
      }
    </style>
  </defs>
  <path id="AH Logo" data-name="AH Logo" class="cls-1" d="M737.317,314.759l299.133,0.552h-1.1L290.541,748.058v0.552h52.691l65.315-38.086q-0.275,70.921-.549,141.857l-64.217-37.534L43.551,814.3h1.1l744.81-432.747V381H736.768l-65.315,38.086V192.773l65.864-38.086V314.759ZM541.372,235.827l30.737,18.215V475.383L506.245,513.47V334.078l-97.7,56.854V570.875l-65.315,37.534c1.053-89.985-.549-257.771-0.549-257.771S475.515,274.094,541.372,235.827Zm195.4,283.714q0.274,147.087.549,294.2l-65.864,38.086v-294.2ZM571.56,615.585q0.275,147.086.549,294.2l-32.383,19.319-33.481-19.871V653.671Z"/>
</svg>
