<svg width="190" height="190" viewBox="0 0 190 190" fill="none" xmlns="http://www.w3.org/2000/svg">
<path d="M0 0V31.6543H190V0H0ZM142.5 19.7793H134.596V11.875H142.5V19.7793ZM158.346 19.7793H150.441V11.875H158.346V19.7793ZM174.154 19.7793H166.25V11.875H174.154V19.7793Z" fill="#191116"/>
<path d="M0 190H190V39.5573H0V190ZM31.6543 174.154H23.75V146.434H31.6543V174.154ZM51.4707 174.154H43.5663V150.404H51.4707V174.154ZM71.25 174.154H63.3457V138.529H71.25V174.154ZM91.0293 174.154H83.125V126.654H91.0293V174.154ZM110.846 174.154H102.941V142.5H110.846V174.154ZM130.625 174.154H122.721V122.685H130.625V174.154ZM150.404 174.154H142.5V114.779H150.404V174.154ZM170.221 174.154H162.316V106.874H170.221V174.154ZM35.626 113.147L51.4717 128.993L87.0967 93.368L106.876 113.147L156.676 63.347H142.501V55.4427H170.221V83.1263H162.317V68.9133L106.874 124.356L87.095 104.577L51.47 140.202L35.6243 124.356L22.5988 137.382L16.9952 131.778L35.626 113.147Z" fill="#191116"/>
</svg>
