<svg width="190" height="166" viewBox="0 0 190 166" fill="none" xmlns="http://www.w3.org/2000/svg">
<path d="M0 132.147V148.661L16.5136 165.211L173.449 165.36L190 148.846V132.332L0 132.147ZM82.6055 152.891H74.33V144.616H82.6055V152.891ZM99.1191 152.891H90.8436V144.616H99.1191V152.891ZM115.633 152.928H107.357V144.653H115.633V152.928Z" fill="#191116"/>
<path d="M86.799 80.0803L111.588 66.1642L86.836 52.2112L86.799 80.0803Z" fill="#191116"/>
<path d="M181.873 0.148437L8.3871 0L8.27577 123.906L181.724 124.055L181.873 0.148437ZM95.0368 111.586C69.9508 111.549 49.6135 91.2133 49.6508 66.129C49.6881 41.0447 70.0238 20.7056 95.1081 20.743C120.192 20.7803 140.531 41.1159 140.494 66.2002C140.457 91.2845 120.121 111.624 95.0368 111.586Z" fill="#191116"/>
</svg>
