<svg width="190" height="190" viewBox="0 0 190 190" fill="none" xmlns="http://www.w3.org/2000/svg">
<path d="M0 0V31.6543H190V0H0ZM114.78 19.7793H19.7804V11.875H114.78V19.7793ZM142.501 19.7793H134.597V11.875H142.501V19.7793ZM158.347 19.7793H150.442V11.875H158.347V19.7793ZM174.155 19.7793H166.251V11.875H174.155V19.7793Z" fill="#191116"/>
<path d="M0 190H190V39.5573H0V190ZM123.87 81.9748L129.473 76.3712L159.977 106.875L129.473 137.379L123.87 131.775L148.77 106.875L123.87 81.9748ZM107.171 65.795L114.518 68.8008L78.8931 155.895L71.5455 152.89L107.171 65.795ZM60.5255 76.3712L66.1292 81.9748L41.2286 106.875L66.1292 131.776L60.5255 137.379L30.0217 106.876L60.5255 76.3712Z" fill="#191116"/>
</svg>
